<svg width="344" height="256" viewBox="0 0 344 256" fill="none" xmlns="http://www.w3.org/2000/svg">
<path d="M25.004 190.94C22.1213 190.94 19.8027 190.063 18.048 188.308C16.2933 186.553 15.416 184.172 15.416 181.164V66.86C15.416 63.9773 16.2307 61.7213 17.86 60.092C19.6147 58.3373 21.996 57.46 25.004 57.46H70.312C84.3493 57.46 95.2533 60.9067 103.024 67.8C110.795 74.6933 114.68 84.4693 114.68 97.128C114.68 109.661 110.795 119.437 103.024 126.456C95.2533 133.475 84.3493 136.984 70.312 136.984H34.78V181.164C34.78 184.172 33.9027 186.553 32.148 188.308C30.5187 190.063 28.1373 190.94 25.004 190.94ZM68.244 121.38C86.7933 121.38 96.068 113.296 96.068 97.128C96.068 81.0853 86.7933 73.064 68.244 73.064H34.78V121.38H68.244Z" fill="white"/>
<path d="M286.776 190.94C283.893 190.94 281.512 190.063 279.632 188.308C277.877 186.428 277 184.047 277 181.164V73.628H239.4C233.384 73.628 230.376 70.9333 230.376 65.544C230.376 62.912 231.128 60.9067 232.632 59.528C234.261 58.1493 236.517 57.46 239.4 57.46H334.152C337.035 57.46 339.228 58.1493 340.732 59.528C342.361 60.9067 343.176 62.912 343.176 65.544C343.176 70.9333 340.168 73.628 334.152 73.628H296.552V181.164C296.552 184.047 295.675 186.428 293.92 188.308C292.165 190.063 289.784 190.94 286.776 190.94Z" fill="white"/>
<line x1="172.5" x2="172.5" y2="256" stroke="#69EBD0" stroke-width="5"/>
</svg>
