<svg width="2013" height="512" viewBox="0 0 2013 512" fill="none" xmlns="http://www.w3.org/2000/svg">
<path d="M537.004 318.94C534.121 318.94 531.803 318.063 530.048 316.308C528.293 314.553 527.416 312.172 527.416 309.164V194.86C527.416 191.977 528.231 189.721 529.86 188.092C531.615 186.337 533.996 185.46 537.004 185.46H582.312C596.349 185.46 607.253 188.907 615.024 195.8C622.795 202.693 626.68 212.469 626.68 225.128C626.68 237.661 622.795 247.437 615.024 254.456C607.253 261.475 596.349 264.984 582.312 264.984H546.78V309.164C546.78 312.172 545.903 314.553 544.148 316.308C542.519 318.063 540.137 318.94 537.004 318.94ZM580.244 249.38C598.793 249.38 608.068 241.296 608.068 225.128C608.068 209.085 598.793 201.064 580.244 201.064H546.78V249.38H580.244ZM752.856 306.72C753.483 308.224 753.796 309.477 753.796 310.48C753.796 312.861 752.793 314.867 750.788 316.496C748.908 318.125 746.777 318.94 744.396 318.94C742.767 318.94 741.2 318.501 739.696 317.624C738.317 316.621 737.252 315.243 736.5 313.488L724.092 285.288H655.284L642.876 313.488C642.124 315.243 640.996 316.621 639.492 317.624C637.988 318.501 636.421 318.94 634.792 318.94C632.285 318.94 630.029 318.125 628.024 316.496C626.144 314.867 625.204 312.861 625.204 310.48C625.204 309.477 625.517 308.224 626.144 306.72L679.16 190.724C680.037 188.719 681.416 187.152 683.296 186.024C685.301 184.896 687.369 184.332 689.5 184.332C691.631 184.332 693.636 184.896 695.516 186.024C697.521 187.152 698.963 188.719 699.84 190.724L752.856 306.72ZM717.324 269.872L689.688 207.644L662.24 269.872H717.324ZM816.501 319.504C806.976 319.504 797.889 318.188 789.241 315.556C780.719 312.924 773.888 309.289 768.749 304.652C766.368 302.647 765.177 300.077 765.177 296.944C765.177 294.688 765.804 292.808 767.057 291.304C768.311 289.675 769.815 288.86 771.569 288.86C773.324 288.86 775.455 289.675 777.961 291.304C789.116 299.576 801.837 303.712 816.125 303.712C826.152 303.712 833.86 301.832 839.249 298.072C844.639 294.312 847.333 288.923 847.333 281.904C847.333 276.389 844.827 272.253 839.813 269.496C834.8 266.739 826.779 264.107 815.749 261.6C805.221 259.344 796.573 256.775 789.805 253.892C783.037 251.009 777.711 247.124 773.825 242.236C770.065 237.223 768.185 230.893 768.185 223.248C768.185 215.603 770.253 208.835 774.389 202.944C778.651 196.928 784.541 192.291 792.061 189.032C799.581 185.648 808.167 183.956 817.817 183.956C826.716 183.956 834.925 185.209 842.445 187.716C849.965 190.223 856.357 193.92 861.621 198.808C864.128 200.939 865.381 203.508 865.381 206.516C865.381 208.647 864.692 210.527 863.313 212.156C862.06 213.785 860.556 214.6 858.801 214.6C857.172 214.6 855.104 213.785 852.597 212.156C846.832 207.769 841.38 204.636 836.241 202.756C831.228 200.751 825.149 199.748 818.005 199.748C808.355 199.748 800.835 201.753 795.445 205.764C790.056 209.649 787.361 215.101 787.361 222.12C787.361 228.136 789.743 232.711 794.505 235.844C799.268 238.852 806.913 241.609 817.441 244.116C828.471 246.623 837.369 249.255 844.137 252.012C851.031 254.644 856.483 258.341 860.493 263.104C864.629 267.741 866.697 273.757 866.697 281.152C866.697 288.672 864.567 295.377 860.305 301.268C856.169 307.033 850.279 311.545 842.633 314.804C835.113 317.937 826.403 319.504 816.501 319.504ZM934.368 319.504C924.843 319.504 915.756 318.188 907.108 315.556C898.586 312.924 891.755 309.289 886.616 304.652C884.235 302.647 883.044 300.077 883.044 296.944C883.044 294.688 883.671 292.808 884.924 291.304C886.178 289.675 887.682 288.86 889.436 288.86C891.191 288.86 893.322 289.675 895.828 291.304C906.983 299.576 919.704 303.712 933.992 303.712C944.019 303.712 951.727 301.832 957.116 298.072C962.506 294.312 965.2 288.923 965.2 281.904C965.2 276.389 962.694 272.253 957.68 269.496C952.667 266.739 944.646 264.107 933.616 261.6C923.088 259.344 914.44 256.775 907.672 253.892C900.904 251.009 895.578 247.124 891.692 242.236C887.932 237.223 886.052 230.893 886.052 223.248C886.052 215.603 888.12 208.835 892.256 202.944C896.518 196.928 902.408 192.291 909.928 189.032C917.448 185.648 926.034 183.956 935.684 183.956C944.583 183.956 952.792 185.209 960.312 187.716C967.832 190.223 974.224 193.92 979.488 198.808C981.995 200.939 983.248 203.508 983.248 206.516C983.248 208.647 982.559 210.527 981.18 212.156C979.927 213.785 978.423 214.6 976.668 214.6C975.039 214.6 972.971 213.785 970.464 212.156C964.699 207.769 959.247 204.636 954.108 202.756C949.095 200.751 943.016 199.748 935.872 199.748C926.222 199.748 918.702 201.753 913.312 205.764C907.923 209.649 905.228 215.101 905.228 222.12C905.228 228.136 907.61 232.711 912.372 235.844C917.135 238.852 924.78 241.609 935.308 244.116C946.338 246.623 955.236 249.255 962.004 252.012C968.898 254.644 974.35 258.341 978.36 263.104C982.496 267.741 984.564 273.757 984.564 281.152C984.564 288.672 982.434 295.377 978.172 301.268C974.036 307.033 968.146 311.545 960.5 314.804C952.98 317.937 944.27 319.504 934.368 319.504ZM1018.02 318.94C1015.14 318.94 1012.82 318.063 1011.06 316.308C1009.31 314.553 1008.43 312.172 1008.43 309.164V194.296C1008.43 191.413 1009.31 189.095 1011.06 187.34C1012.82 185.46 1015.14 184.52 1018.02 184.52C1021.03 184.52 1023.41 185.397 1025.16 187.152C1026.92 188.907 1027.8 191.288 1027.8 194.296V309.164C1027.8 312.172 1026.92 314.553 1025.16 316.308C1023.53 318.063 1021.15 318.94 1018.02 318.94ZM1115.52 319.504C1102.98 319.504 1092.08 316.747 1082.8 311.232C1073.66 305.717 1066.57 297.884 1061.56 287.732C1056.55 277.58 1054.04 265.611 1054.04 251.824C1054.04 237.912 1056.48 225.88 1061.37 215.728C1066.39 205.451 1073.53 197.617 1082.8 192.228C1092.08 186.713 1102.98 183.956 1115.52 183.956C1128.18 183.956 1139.14 186.713 1148.42 192.228C1157.69 197.617 1164.77 205.451 1169.66 215.728C1174.67 225.88 1177.18 237.849 1177.18 251.636C1177.18 265.423 1174.67 277.455 1169.66 287.732C1164.77 297.884 1157.69 305.717 1148.42 311.232C1139.14 316.747 1128.18 319.504 1115.52 319.504ZM1115.52 303.712C1128.8 303.712 1139.14 299.2 1146.54 290.176C1153.93 281.152 1157.63 268.305 1157.63 251.636C1157.63 234.967 1153.93 222.183 1146.54 213.284C1139.27 204.26 1128.93 199.748 1115.52 199.748C1102.36 199.748 1092.08 204.26 1084.68 213.284C1077.42 222.183 1073.78 234.967 1073.78 251.636C1073.78 268.305 1077.42 281.152 1084.68 290.176C1092.08 299.2 1102.36 303.712 1115.52 303.712ZM1303.23 184.52C1305.99 184.52 1308.18 185.46 1309.81 187.34C1311.57 189.095 1312.44 191.413 1312.44 194.296V309.164C1312.44 312.047 1311.57 314.428 1309.81 316.308C1308.06 318.063 1305.8 318.94 1303.04 318.94C1299.79 318.94 1297.28 317.687 1295.52 315.18L1221.83 217.984V309.164C1221.83 312.047 1220.95 314.428 1219.2 316.308C1217.57 318.063 1215.37 318.94 1212.62 318.94C1209.86 318.94 1207.67 318.063 1206.04 316.308C1204.41 314.553 1203.59 312.172 1203.59 309.164V194.296C1203.59 191.413 1204.47 189.095 1206.22 187.34C1207.98 185.46 1210.23 184.52 1212.99 184.52C1216.25 184.52 1218.76 185.773 1220.51 188.28L1294.21 285.664V194.296C1294.21 191.413 1295.02 189.095 1296.65 187.34C1298.28 185.46 1300.47 184.52 1303.23 184.52ZM1434.24 318.94C1431.35 318.94 1428.97 318.063 1427.09 316.308C1425.34 314.428 1424.46 312.047 1424.46 309.164V201.628H1386.86C1380.84 201.628 1377.84 198.933 1377.84 193.544C1377.84 190.912 1378.59 188.907 1380.09 187.528C1381.72 186.149 1383.98 185.46 1386.86 185.46H1481.61C1484.5 185.46 1486.69 186.149 1488.19 187.528C1489.82 188.907 1490.64 190.912 1490.64 193.544C1490.64 198.933 1487.63 201.628 1481.61 201.628H1444.01V309.164C1444.01 312.047 1443.14 314.428 1441.38 316.308C1439.63 318.063 1437.24 318.94 1434.24 318.94ZM1555.59 319.504C1543.06 319.504 1532.15 316.747 1522.88 311.232C1513.73 305.717 1506.65 297.884 1501.63 287.732C1496.62 277.58 1494.11 265.611 1494.11 251.824C1494.11 237.912 1496.56 225.88 1501.45 215.728C1506.46 205.451 1513.6 197.617 1522.88 192.228C1532.15 186.713 1543.06 183.956 1555.59 183.956C1568.25 183.956 1579.22 186.713 1588.49 192.228C1597.77 197.617 1604.85 205.451 1609.73 215.728C1614.75 225.88 1617.25 237.849 1617.25 251.636C1617.25 265.423 1614.75 277.455 1609.73 287.732C1604.85 297.884 1597.77 305.717 1588.49 311.232C1579.22 316.747 1568.25 319.504 1555.59 319.504ZM1555.59 303.712C1568.88 303.712 1579.22 299.2 1586.61 290.176C1594.01 281.152 1597.7 268.305 1597.7 251.636C1597.7 234.967 1594.01 222.183 1586.61 213.284C1579.34 204.26 1569 199.748 1555.59 199.748C1542.43 199.748 1532.15 204.26 1524.76 213.284C1517.49 222.183 1513.85 234.967 1513.85 251.636C1513.85 268.305 1517.49 281.152 1524.76 290.176C1532.15 299.2 1542.43 303.712 1555.59 303.712ZM1696.68 319.504C1679.01 319.504 1665.6 314.929 1656.45 305.78C1647.3 296.631 1642.73 283.157 1642.73 265.36V194.296C1642.73 191.288 1643.6 188.907 1645.36 187.152C1647.11 185.397 1649.43 184.52 1652.31 184.52C1655.2 184.52 1657.52 185.397 1659.27 187.152C1661.02 188.907 1661.9 191.288 1661.9 194.296V266.676C1661.9 278.833 1664.78 288.045 1670.55 294.312C1676.44 300.579 1685.15 303.712 1696.68 303.712C1708.09 303.712 1716.74 300.579 1722.63 294.312C1728.52 288.045 1731.46 278.833 1731.46 266.676V194.296C1731.46 191.413 1732.34 189.095 1734.09 187.34C1735.85 185.46 1738.17 184.52 1741.05 184.52C1743.93 184.52 1746.25 185.397 1748.01 187.152C1749.76 188.907 1750.64 191.288 1750.64 194.296V265.36C1750.64 283.032 1746 296.505 1736.73 305.78C1727.58 314.929 1714.23 319.504 1696.68 319.504ZM1883.84 305.968C1884.97 307.597 1885.54 309.352 1885.54 311.232C1885.54 313.488 1884.6 315.431 1882.72 317.06C1880.96 318.564 1878.89 319.316 1876.51 319.316C1873 319.316 1870.18 317.749 1868.05 314.616L1842.86 275.512C1839.98 271 1836.91 267.867 1833.65 266.112C1830.39 264.232 1826.13 263.292 1820.86 263.292H1799.62V309.164C1799.62 312.172 1798.74 314.553 1796.99 316.308C1795.36 318.063 1793.04 318.94 1790.03 318.94C1787.15 318.94 1784.83 318.063 1783.08 316.308C1781.32 314.553 1780.44 312.172 1780.44 309.164V194.86C1780.44 191.977 1781.26 189.721 1782.89 188.092C1784.64 186.337 1787.02 185.46 1790.03 185.46H1836.84C1851.51 185.46 1862.66 188.719 1870.31 195.236C1878.08 201.753 1881.96 211.279 1881.96 223.812C1881.96 234.215 1879.02 242.675 1873.13 249.192C1867.24 255.584 1858.84 259.657 1847.94 261.412C1851.19 262.289 1854.14 263.856 1856.77 266.112C1859.4 268.368 1861.97 271.501 1864.48 275.512L1883.84 305.968ZM1834.59 247.688C1844.36 247.688 1851.57 245.808 1856.21 242.048C1860.97 238.163 1863.35 232.209 1863.35 224.188C1863.35 216.167 1861.03 210.339 1856.4 206.704C1851.76 202.944 1844.49 201.064 1834.59 201.064H1799.43V247.688H1834.59ZM1953.68 319.504C1944.16 319.504 1935.07 318.188 1926.42 315.556C1917.9 312.924 1911.07 309.289 1905.93 304.652C1903.55 302.647 1902.36 300.077 1902.36 296.944C1902.36 294.688 1902.98 292.808 1904.24 291.304C1905.49 289.675 1906.99 288.86 1908.75 288.86C1910.5 288.86 1912.63 289.675 1915.14 291.304C1926.3 299.576 1939.02 303.712 1953.3 303.712C1963.33 303.712 1971.04 301.832 1976.43 298.072C1981.82 294.312 1984.51 288.923 1984.51 281.904C1984.51 276.389 1982.01 272.253 1976.99 269.496C1971.98 266.739 1963.96 264.107 1952.93 261.6C1942.4 259.344 1933.75 256.775 1926.98 253.892C1920.22 251.009 1914.89 247.124 1911 242.236C1907.24 237.223 1905.36 230.893 1905.36 223.248C1905.36 215.603 1907.43 208.835 1911.57 202.944C1915.83 196.928 1921.72 192.291 1929.24 189.032C1936.76 185.648 1945.35 183.956 1955 183.956C1963.9 183.956 1972.1 185.209 1979.62 187.716C1987.14 190.223 1993.54 193.92 1998.8 198.808C2001.31 200.939 2002.56 203.508 2002.56 206.516C2002.56 208.647 2001.87 210.527 2000.49 212.156C1999.24 213.785 1997.74 214.6 1995.98 214.6C1994.35 214.6 1992.28 213.785 1989.78 212.156C1984.01 207.769 1978.56 204.636 1973.42 202.756C1968.41 200.751 1962.33 199.748 1955.18 199.748C1945.53 199.748 1938.01 201.753 1932.62 205.764C1927.24 209.649 1924.54 215.101 1924.54 222.12C1924.54 228.136 1926.92 232.711 1931.68 235.844C1936.45 238.852 1944.09 241.609 1954.62 244.116C1965.65 246.623 1974.55 249.255 1981.32 252.012C1988.21 254.644 1993.66 258.341 1997.67 263.104C2001.81 267.741 2003.88 273.757 2003.88 281.152C2003.88 288.672 2001.75 295.377 1997.48 301.268C1993.35 307.033 1987.46 311.545 1979.81 314.804C1972.29 317.937 1963.58 319.504 1953.68 319.504Z" fill="#4F6272"/>
<path d="M249 48C138.519 48 49 137.519 49 248C49 358.481 138.519 448 249 448C359.481 448 449 358.481 449 248C449 137.519 359.481 48 249 48ZM249 371.077V248H126.212L341.308 155.692L249 371.077Z" fill="#69EBD0"/>
<path d="M126 248H249V371L342 155L126 248Z" fill="#4F6272"/>
</svg>
